# xmcd
#
# Track frame offsets: 
#        150
#        28823
#        54318
#        89942
#        128248
#
# Disc length: 2367 seconds
#
# Revision: 0
# Processed by: cddbd v1.5.2PL0 Copyright (c) Steve Scherf et al.
# Submitted via: ExactAudioCopy v1.0b4
#
DISCID=43093d05
DTITLE=Ten Years After - Recorded Live (LP1)
DYEAR=1973
DGENRE=Blues
TTITLE0=One Of These Days
TTITLE1=You Give Me Loving
TTITLE2=Good Morning Little Schoolgirl
TTITLE3=Help Me
TTITLE4=Classical Thing
EXTD=
EXTT0=
EXTT1=
EXTT2=
EXTT3=
EXTT4=
PLAYORDER=
